<svg width="622" height="671" viewBox="0 0 622 671" fill="none" xmlns="http://www.w3.org/2000/svg">
<g clip-path="url(#clip0_4831_5788)">
<path d="M307.94 -0.290527C310.367 1.18408 323.697 20.4771 326.192 23.82L379.489 96.7212L445.702 186.952C460.384 206.758 474.214 223.836 486.654 245.053C519.218 300.619 477.569 361.547 407.82 358.133C387.945 357.34 368.552 349.227 353.366 337.555C340.875 327.957 329.928 311.259 320.278 299.1C314.65 292.009 309.492 282.972 302.97 276.702C300.672 277.054 293.568 283.565 291.56 285.405C275.737 299.906 259.658 315.525 253.737 335.547C244.333 367.356 258.753 396.391 293.859 407.121C373.323 435.172 436.651 358.133 515.932 378.391C530.412 382.094 545.84 387.684 557.452 396.555C559.842 398.434 562.998 403.606 564.651 406.238C560.036 406.246 555.39 405.082 550.869 404.305C540.057 402.453 529.663 401.746 518.735 403.453C491.95 407.633 467.218 419.309 443.739 431.223C406.227 450.258 372.768 467.707 328.34 468.008C317.13 468.082 305.289 467.133 294.331 464.945C258.124 457.711 225.769 440.602 205.568 411.777C189.792 389.266 186.444 363.973 192.795 338.207C202.076 300.557 233.964 263.922 261.524 235.45C264.618 232.254 268.415 229.642 271.493 226.43C274.435 223.361 289.085 207.141 291.302 205.92C294.507 204.157 296.659 200.614 299.135 198.038C302.758 194.27 306.424 190.456 310.571 187.152C319.465 198.154 327.982 210.565 336.436 221.886C344.359 232.288 352.402 243.033 360.023 253.584C365.547 261.235 369.934 269.881 375.528 277.38C385.973 291.395 402.753 308.215 422.219 295.722C433.874 288.238 431.157 273.849 426.503 263.444C424.669 259.348 421.457 255.573 419.157 251.693C413.271 242.324 406.292 233.484 400.148 224.292C390.77 210.256 381.327 196.221 371.523 182.424C350.382 153.063 328.291 124.273 305.28 96.0919C302.027 98.6345 292.159 111.806 288.979 115.801C277.329 130.18 265.822 144.653 254.458 159.219L191.704 237.818C182.21 249.872 173.255 260.602 164.191 273.153C137.507 309.59 122.897 349.375 132.973 393.238C141.048 428.391 160.802 459.813 193.113 481.32C240.462 512.832 302.346 517.777 358.959 511.152C370.077 509.852 380.539 507.504 391.446 505.32C394.972 504.762 404.72 501.777 408.483 500.668C421.047 496.867 434.141 492.078 445.465 485.813C486.253 463.25 521.84 427.766 573.607 448.684C593.939 456.828 609.788 472.074 617.551 490.969C624.462 507.465 623.097 532.36 614.43 547.922C589.349 592.957 527.807 629.336 477.564 646.422C378.145 680.234 253.9 679.317 156.374 640.895C86.0339 613.188 8.10668 542.817 0.819273 470.481C-2.19601 441.067 11.1353 417.695 24.0477 391.805C37.0897 440.141 48.0791 477 81.2852 518.227C139.927 591.774 239.312 614.895 334.914 611.992C397.767 610.086 462.012 600.402 514.374 566.305C528.948 556.813 557.349 535.141 561.388 518.891C564.845 504.981 544.617 491.051 530.283 500.676C525.147 503.988 519.329 507.313 513.917 511.094C504.755 517.184 495.308 522.906 485.594 528.145C370.072 590.41 200.668 584.567 114.356 482.008C61.4337 419.121 52.5106 339.32 94.6901 268.954C101.579 257.461 108.787 247.38 117.423 236.929C120.847 232.788 125.236 228.41 128.377 224.314L150.981 195.352C164.081 178.449 177.705 161.923 190.618 144.986C200.973 131.404 212.082 118.836 222.62 105.546L274.278 40.2149C277.331 36.3829 279.854 32.2638 283.185 28.5583C291.426 19.3919 297.642 7.00596 307.94 -0.290527Z" fill="#92D5C3"/>
</g>
<defs>
<clipPath id="clip0_4831_5788">
<rect width="622" height="671" fill="white"/>
</clipPath>
</defs>
</svg>
